<?xml version="1.0" encoding="UTF-8"?>
<!DOCTYPE svg PUBLIC "-//W3C//DTD SVG 1.1//EN" "http://www.w3.org/Graphics/SVG/1.1/DTD/svg11.dtd">
<!-- Creator: CorelDRAW 2020 (64 Bit) -->
<svg xmlns="http://www.w3.org/2000/svg" xml:space="preserve" width="127.661mm" height="28.6172mm" version="1.1" style="shape-rendering:geometricPrecision; text-rendering:geometricPrecision; image-rendering:optimizeQuality; fill-rule:evenodd; clip-rule:evenodd"
viewBox="0 0 8862.86 1986.74"
 xmlns:xlink="http://www.w3.org/1999/xlink"
 xmlns:xodm="http://www.corel.com/coreldraw/odm/2003">
 <defs>
  <style type="text/css">
   <![CDATA[
    .str0 {stroke:#D487FF;stroke-width:211.61;stroke-miterlimit:22.9256}
    .fil2 {fill:none}
    .fil3 {fill:#8365AA;fill-rule:nonzero}
    .fil0 {fill:url(#id5)}
    .fil1 {fill:url(#id6)}
   ]]>
  </style>
   <clipPath id="id0">
    <path d="M-0 1986.74l1569.15 0 0 -1986.74 -1569.15 0 0 1986.74z"/>
   </clipPath>
     <mask id="id1">
  <linearGradient id="id2" gradientUnits="userSpaceOnUse" x1="1123.24" y1="765.72" x2="-443.31" y2="1642.11">
   <stop offset="0" style="stop-opacity:1; stop-color:white"/>
   <stop offset="1" style="stop-opacity:0.572549; stop-color:white"/>
  </linearGradient>
      <rect style="fill:url(#id2)" x="72.17" y="72.16" width="1424.83" height="1842.42"/>
     </mask>
   <mask id="id3">
  <linearGradient id="id4" gradientUnits="userSpaceOnUse" x1="8734.26" y1="861.12" x2="-354.68" y2="1682.31">
   <stop offset="0" style="stop-opacity:1; stop-color:white"/>
   <stop offset="0.909804" style="stop-opacity:0.501961; stop-color:white"/>
   <stop offset="1" style="stop-opacity:0; stop-color:white"/>
  </linearGradient>
    <rect style="fill:url(#id4)" x="2356.66" y="459.06" width="6230.94" height="1477.72"/>
   </mask>
  <linearGradient id="id5" gradientUnits="userSpaceOnUse" x1="4402.79" y1="1214.14" x2="-2792.94" y2="2643.48">
   <stop offset="0" style="stop-opacity:1; stop-color:white"/>
   <stop offset="0.329412" style="stop-opacity:0.501961; stop-color:white"/>
   <stop offset="1" style="stop-opacity:0; stop-color:white"/>
  </linearGradient>
  <linearGradient id="id6" gradientUnits="userSpaceOnUse" x1="1280.12" y1="689.93" x2="-1012.86" y2="1847.73">
   <stop offset="0" style="stop-opacity:1; stop-color:white"/>
   <stop offset="1" style="stop-opacity:0.572549; stop-color:white"/>
  </linearGradient>
 </defs>
 <g id="Camada_x0020_1">
  <metadata id="CorelCorpID_0Corel-Layer"/>
  <polygon class="fil0" points="2279.37,1575.44 8862.86,1575.44 8862.86,498.61 2279.37,498.61 "/>
  <polygon class="fil1" points="35.57,1941.72 1533.59,1941.72 1533.59,45.03 35.57,45.03 "/>
  <g>
  </g>
  <g style="clip-path:url(#id0)">
   <g>
    <path id="_1" class="fil2 str0" style="mask:url(#id1)" d="M177.97 177.96l1167.71 597.03c342.22,174.97 -1368.79,330.65 -1031.61,515.09l948.18 518.69"/>
   </g>
  </g>
  <polygon class="fil2" points="-0,1986.74 1569.15,1986.74 1569.15,0 -0,0 "/>
  <path class="fil3" style="mask:url(#id3)" d="M3103.75 1635.25l-64.95 -231 -320.06 0 -69.36 231 -292.72 0 363.84 -1176.18 381.48 0 370.02 1176.18 -368.26 0zm-319.47 -488.46l188.09 0 -94.34 -340.63 -93.75 340.63zm1725.47 -585.45l-8.82 232.77 -16.46 -0.88c-30.86,-1.76 -53.19,-2.65 -66.42,-2.65 -53.49,0 -85.52,11.46 -96.4,34.39 65.54,53.78 98.16,118.74 98.16,194.56 0,89.05 -35.56,156.06 -106.69,201.03 -70.83,44.97 -167.52,67.3 -289.49,67.3 -2.65,0 -17.63,-0.59 -44.67,-1.76 -25.28,-1.17 -38.5,-1.76 -39.68,-1.76 -55.84,0 -83.76,14.7 -83.76,43.49 0,25.57 24.69,39.09 74.06,40.86l281.85 12.05c102.86,4.71 178.39,33.21 226.3,86.11 47.91,52.9 72.01,114.33 72.01,185.16 0,83.76 -35.56,152.24 -106.98,205.14 -71.42,53.19 -210.43,79.64 -417.04,79.64 -318.29,0 -477.59,-73.18 -477.59,-219.54 0,-79.94 42.03,-135.78 126.37,-167.23 -54.96,-38.5 -82.29,-84.05 -82.29,-136.95 0,-86.11 55.84,-151.06 167.52,-194.85 -92.87,-40.56 -139.31,-108.16 -139.31,-202.79 0,-86.41 37.91,-153.71 113.45,-201.91 75.83,-48.2 179.57,-72.3 311.53,-72.3 60.25,0 114.91,6.17 164.29,18.22 20.28,-136.66 92.88,-205.14 218.37,-205.14 28.8,0 69.36,2.35 121.67,7.05zm-503.16 564.29c66.13,0 99.34,-34.98 99.34,-104.63 0,-71.42 -33.8,-106.98 -101.69,-106.98 -67.31,0 -101.1,36.15 -101.1,108.74 0,68.48 34.39,102.87 103.45,102.87zm-87.87 499.33c-12.64,-0.29 -25.28,-0.58 -37.91,-0.58 -59.07,0 -88.76,17.93 -88.76,54.08 0,33.21 22.63,54.67 67.6,64.07 45.26,9.7 105.21,14.4 180.45,14.4 71.42,0 117.27,-5.88 137.54,-17.93 20.28,-12.05 30.57,-28.51 30.57,-49.37 0,-14.99 -4.7,-27.33 -13.82,-37.33 -9.11,-9.99 -30.86,-15.57 -65.54,-17.34l-210.14 -10zm1261.71 -305.36l319.17 21.45c-18.81,86.41 -67.3,159.89 -145.19,220.72 -77.59,60.84 -182.8,91.11 -315.35,91.11 -147.54,0 -265.1,-42.61 -352.98,-127.85 -87.87,-85.23 -131.66,-191.04 -131.66,-317.12 0,-131.07 43.2,-241.58 129.9,-331.52 86.7,-90.22 202.5,-135.19 347.1,-135.19 139.9,0 253.05,42.32 339.45,127.26 86.41,84.94 129.61,200.44 129.61,346.51 0,12.05 -0.29,28.8 -0.88,49.97l-585.45 0c1.17,55.55 10.87,96.69 29.39,123.73 18.22,26.75 53.2,40.27 104.92,40.27 74.94,0 118.74,-36.44 131.96,-109.33zm-24.69 -227.48c-0.59,-58.48 -12.34,-97.87 -35.27,-117.86 -22.92,-20.28 -51.43,-30.27 -85.52,-30.27 -80.53,0 -120.79,49.37 -120.79,148.12l241.58 0zm1333.42 543.12l-343.86 0 0 -551.65c0,-45.55 -6.76,-74.35 -20.86,-86.99 -14.11,-12.64 -31.45,-19.11 -52.61,-19.11 -62.31,0 -93.46,43.79 -93.46,131.08l0 526.66 -343.86 0 0 -876.41 319.17 0 0 124.03c47.02,-94.34 131.08,-141.66 251.87,-141.66 63.77,0 117.27,12.34 161.35,36.74 43.79,24.39 75.24,55.84 94.04,94.63 18.81,38.79 28.21,106.1 28.21,201.91l0 560.76zm1036.29 0l-322.7 0 0 -116.38c-47.61,89.34 -126.08,134.02 -235.41,134.02 -100.8,0 -182.51,-39.38 -245.4,-118.15 -62.6,-79.06 -94.05,-193.68 -94.05,-343.86 0,-140.48 31.45,-252.16 94.63,-334.75 62.9,-82.58 146.36,-123.73 250.11,-123.73 86.7,0 158.12,32.91 214.25,99.04l0 -372.37 338.57 0 0 1176.18zm-338.57 -562.81c0,-78.47 -32.33,-117.86 -96.69,-117.86 -45.26,0 -74.65,24.98 -88.75,74.94 -13.82,49.97 -20.87,111.09 -20.87,183.39 0,141.66 35.86,212.49 107.86,212.49 27.33,0 50.56,-11.17 69.65,-33.5 19.11,-22.33 28.8,-56.72 28.8,-102.57l0 -216.9zm1400.72 562.81l-326.23 0c-8.23,-37.32 -12.34,-78.18 -12.34,-122.56 -62.01,93.46 -155.77,140.19 -281.55,140.19 -103.46,0 -180.75,-26.45 -232.18,-79.06 -51.43,-52.9 -77,-113.15 -77,-181.33 0,-92.29 42.03,-166.94 126.08,-223.95 84.05,-57.02 233.06,-91.4 447.02,-102.87l0 -19.99c0,-38.79 -8.82,-64.66 -26.16,-77.29 -17.34,-12.64 -42.9,-19.11 -76.41,-19.11 -78.77,0 -122.85,32.33 -131.96,96.99l-313.88 -29.98c44.67,-183.39 196.91,-275.09 456.72,-275.09 70.54,0 135.19,7.05 194.26,21.16 59.07,14.11 105.8,35.86 140.19,65.84 34.39,29.98 57.61,61.42 69.36,94.63 11.75,33.5 17.63,97.58 17.63,192.21l0 349.74c0,66.42 8.82,123.44 26.45,170.46zm-356.2 -409.11c-145.77,15.28 -218.66,62.01 -218.66,139.9 0,52.6 28.8,78.76 86.7,78.76 36.45,0 67.6,-10.87 93.46,-32.62 25.57,-21.75 38.5,-69.65 38.5,-144.01l0 -42.03z"/>
 </g>
</svg>
